<svg xmlns="http://www.w3.org/2000/svg" xmlns:xlink="http://www.w3.org/1999/xlink" id="Layer_1" x="0" y="0" version="1.1" viewBox="0 0 543.5 151.4" xml:space="preserve" style="enable-background:new 0 0 543.5 151.4"><style type="text/css">.st3{fill:#3d3d3d}.st4{fill:#0075a8}.st10{fill:#3498db}.st14{fill:#f1c40f}.st16{fill:#eadf5a}.st68{fill:#58d68d}.st69{fill:#2ecc71}.st70{stroke:#2ecc71}.st70,.st71,.st72{fill:none;stroke-width:1.1621;stroke-miterlimit:10}.st71{stroke:#f1c40f}.st72{stroke:#0075a8}</style><g><path d="M188.9,8.5h24.5c11.6,0,19.4,5.6,19.4,16.5c0,8.9-6.1,14.3-12,16.1c1.8,1.5,3.1,3.5,4.1,5.6 c2.5,5,4.1,10.6,9.3,10.6c1.3,0,2.4-0.4,2.4-0.4l-1.1,10.5c0,0-3.2,0.8-5.9,0.8c-7,0-11.1-2.7-15.2-12.1 c-1.8-4.2-4.2-11.6-7.5-11.6h-3.3v23.5h-14.7V8.5z M203.6,19.2v14.6h5.3c4.2,0,9.2-1.3,9.2-7.7c0-5.2-3.3-7-7.4-7H203.6z" class="st3"/><path d="M253,8.5h14.9L288,67.9h-14.9l-3.7-11.3h-19.9l-3.6,11.3H233L253,8.5z M253,45.7h12.8l-4-12.5 c-1.4-4.2-2-10.2-2-10.2h-0.4c0,0-0.9,6.1-2.2,10.1L253,45.7z" class="st3"/><path d="M288.9,8.5h15.8L320.2,38c1.3,2.6,3.1,7,4.5,10.6h0.4c-0.2-3.3-0.6-8.1-0.6-11.5V8.5h12.1v59.4h-15.4 l-16.2-29.4c-1.5-2.6-3.1-6.5-4.3-9.7h-0.4c0.3,3.3,0.7,7.3,0.7,10.6v28.5h-12.1V8.5z" class="st3"/><path d="M340.1,37.8c0-21.5,10.6-30.4,27.1-30.4c17.3,0,24.3,9.5,22.4,22.4L375.8,31c1.5-9.4-2.2-13.2-8.9-13.2 c-6.4,0-11.6,4.8-11.6,20.1c0,16.2,5.6,20.3,12.1,20.3c6.1,0,11-3.8,9.9-11.5l12.8,1.3c1,12.1-7.7,20.9-23.6,20.9 C350.4,69,340.1,59.5,340.1,37.8z" class="st3"/><path d="M393.5,8.5h14.7V31h18V8.5h14.7v59.4h-14.7V42.8h-18v25.2h-14.7V8.5z" class="st3"/><path d="M447.1,8.5h39.3v10.9h-24.6v12.8h20.7v10.9h-20.7V57h25.5v10.9h-40.2V8.5z" class="st3"/><path d="M490.5,8.5H515c11.6,0,19.4,5.6,19.4,16.5c0,8.9-6.1,14.3-12,16.1c1.8,1.5,3.1,3.5,4.1,5.6 c2.5,5,4.1,10.6,9.3,10.6c1.3,0,2.4-0.4,2.4-0.4l-1.1,10.5c0,0-3.2,0.8-5.9,0.8c-7,0-11.1-2.7-15.2-12.1 c-1.8-4.2-4.2-11.6-7.5-11.6h-3.3v23.5h-14.7V8.5z M505.2,19.2v14.6h5.3c4.2,0,9.2-1.3,9.2-7.7c0-5.2-3.3-7-7.4-7H505.2z" class="st3"/><path d="M188.9,83.5h15.8l15.6,29.5c1.3,2.6,3.1,7,4.5,10.6h0.4c-0.2-3.3-0.6-8.1-0.6-11.5V83.5h12.1v59.4h-15.4 l-16.2-29.4c-1.5-2.6-3.1-6.5-4.3-9.7h-0.4c0.3,3.3,0.7,7.3,0.7,10.6v28.5h-12.1V83.5z" class="st4"/><path d="M242.7,83.5h38.5v10.9h-23.8v15.4h19.4v10.9h-19.4v22.2h-14.7V83.5z" class="st4"/><path d="M293.6,123.4c-1.1,4.8,0.8,10.2,10.1,10.2c6.2,0,8.3-2.5,8.3-5.7c0-4.9-4.9-6.2-10.7-8.3 c-8.7-3-19.4-7.2-19.4-19.6c0-11.1,8.5-17.9,23.1-17.5c17.8,0.4,22.8,10.8,20.9,19.9l-13.5,1.2c0.9-6.9-1.6-10.7-8.5-10.7 c-4.7,0-7.3,1.8-7.3,5.5c0,4.9,4.8,6.4,10.6,8.4c9,3,19.6,6.6,19.6,18.9c0,10.6-7.9,18.3-23.4,18.3c-14.5,0-24.5-6.7-22.4-19.4 L293.6,123.4z" class="st4"/></g><path d="M131,13.6l-48.9-8c-1.3-0.2-3.2,0.2-4.3,0.8L29.4,36c-1.1,0.7-1.9,2.3-1.9,3.5v36l23.2-5.3	c1.3-0.3,3.3-0.5,4.6-0.4l75.7,3.9c1.3,0.1,2.5-0.9,2.5-2.2V16.3C133.5,15,132.3,13.8,131,13.6z" class="st68"/><path d="M56.3,69.8c-2.4,0-4.3-0.1-5.6,0.2l-23.3,5.5V39.5c0-1.3,0.8-2.9,1.9-3.5L78,6.4c0.6-0.4,0.5-0.6,2.5-0.8v65.3" class="st69"/><g><path d="M86.5,13.5l39,6.4v46.7l-39-2V13.9 M85.5,12.2v53.5l41,2.1V18.9L85.5,12.2L85.5,12.2z" class="st69"/></g><path d="M111.6,72.8l43.6,1.9c1.3,0.1,2.3,1.2,2.3,2.4V137c0,1.3-1,2.4-2.3,2.5l-43.6,3.2c-1.3,0.1-2.3-0.9-2.3-2.2V75	C109.3,73.7,110.3,72.7,111.6,72.8z" class="st10"/><g><path d="M115.5,80l35,1.5v51.3l-35,2.5V80 M114.5,78.8v57.8l37-2.6V80.4L114.5,78.8L114.5,78.8z" class="st4"/></g><path d="M6.5,82.5v47.4c0,1.3,1.2,2.7,2.5,3.1l40.9,13.4c0.9,0.3,1.6,0.5,3.6,0.6v0.1l0.4-0.1c0.2,0,0.3,0,0.3,0	c0,0,52.3-3.8,52.3-3.8c1.3-0.1,1.9-1.2,1.9-2.5V74.8c0-1.3-0.7-2.4-1.9-2.4L55,69.8c-1.3-0.1-3.2,0.1-4.5,0.4L9,79.7	C7.7,80,6.5,81.2,6.5,82.5z" class="st16"/><path d="M53.1,69.9c-1.3-0.1-2.2,0.1-3.5,0.3L9.1,79.7c-1.3,0.3-2.6,1.6-2.6,2.9v47.4c0,1.3,1.2,2.7,2.5,3.1l40.9,13.4	c0.9,0.3,1.6,0.5,3.6,0.6v0" class="st14"/><g><path d="M59.3,77l42.2,2.1v57.3l-21.9,1.6c-5.4,0.4-16.4,1.2-20.1,1.5L59.3,77 M58.1,75.8l0.2,64.9 c0,0,14.7-1.1,21.3-1.5l22.9-1.7V78L58.1,75.8L58.1,75.8z" class="st14"/></g><line x1="108.3" x2="108.3" y1="73" y2="10.5" class="st70"/><line x1="82.5" x2="82.5" y1="144.9" y2="71.3" class="st71"/><line x1="134.1" x2="134.1" y1="140.8" y2="74.2" class="st72"/></svg>