<svg xmlns="http://www.w3.org/2000/svg" xmlns:xlink="http://www.w3.org/1999/xlink" id="Layer_1" x="0" y="0" version="1.1" viewBox="0 0 934.9 152" xml:space="preserve" style="enable-background:new 0 0 934.9 152"><style type="text/css">.st2{fill:#ccd1d3}.st5{fill:#3d3d3d}.st6{fill:#0075a8}.st110,.st111{fill:none;stroke-miterlimit:10}.st110{stroke:#78c9cf;stroke-width:3}.st111{stroke:#34495e}</style><g><path d="M239.7,65h-13.5c-2.5,0-4.3-0.9-5.4-2.8l-10.6-18.6c-0.5-0.8-1.1-1.4-1.7-1.7c-0.6-0.4-1.5-0.5-2.6-0.5h-3.8 V65h-14.9V0.8h20.9c4.6,0,8.6,0.5,11.9,1.4s5.9,2.3,8,4c2.1,1.7,3.6,3.7,4.5,6c0.9,2.3,1.4,4.8,1.4,7.6c0,2.1-0.3,4-0.8,5.9 s-1.4,3.6-2.5,5.1c-1.1,1.6-2.4,3-4,4.2c-1.6,1.2-3.4,2.2-5.5,3c1,0.5,1.9,1.1,2.7,1.9c0.8,0.7,1.6,1.6,2.3,2.7L239.7,65z M208.1,31c2,0,3.7-0.3,5.2-0.8c1.4-0.5,2.6-1.2,3.5-2.1c0.9-0.9,1.6-2,2-3.2c0.4-1.2,0.6-2.5,0.6-3.9c0-2.8-0.9-5-2.8-6.6 c-1.8-1.6-4.7-2.4-8.5-2.4h-6v19H208.1z" class="st5"/><path d="M298.2,65h-11.5c-1.3,0-2.3-0.3-3.1-0.9c-0.8-0.6-1.4-1.4-1.8-2.3l-3.8-11.2h-24.4l-3.8,11.2 c-0.3,0.8-0.9,1.6-1.7,2.2c-0.8,0.7-1.9,1-3.1,1h-11.6l24.8-64.1h15.2L298.2,65z M274.5,40.4l-5.9-17.6c-0.4-1.1-0.9-2.4-1.4-3.9 c-0.5-1.5-1-3.1-1.5-4.9c-0.4,1.8-0.9,3.4-1.4,5s-1,2.8-1.4,4L257,40.4H274.5z" class="st5"/><path d="M357.4,0.8V65h-7.7c-1.1,0-2.1-0.2-2.9-0.5c-0.8-0.4-1.5-1-2.3-1.9l-30.2-38.2c0.1,1.1,0.2,2.3,0.2,3.3 c0,1.1,0.1,2.1,0.1,3V65h-13.1V0.8h7.8c0.6,0,1.2,0,1.6,0.1c0.4,0.1,0.8,0.2,1.2,0.3c0.4,0.2,0.7,0.4,1,0.7 c0.3,0.3,0.7,0.7,1.1,1.2l30.5,38.5c-0.1-1.2-0.2-2.4-0.3-3.6c-0.1-1.2-0.1-2.3-0.1-3.3V0.8H357.4z" class="st5"/><path d="M409.4,48.4c0.4,0,0.7,0.1,1.1,0.2c0.4,0.1,0.7,0.4,1,0.7l5.9,6.2c-2.6,3.4-5.8,5.9-9.7,7.6 c-3.9,1.7-8.5,2.6-13.8,2.6c-4.9,0-9.2-0.8-13.1-2.5c-3.9-1.7-7.1-3.9-9.8-6.9c-2.7-2.9-4.7-6.4-6.2-10.4s-2.2-8.4-2.2-13 c0-4.8,0.8-9.2,2.3-13.2c1.6-4,3.7-7.5,6.6-10.4c2.8-2.9,6.2-5.2,10.1-6.8c3.9-1.6,8.3-2.4,13-2.4c2.4,0,4.7,0.2,6.8,0.6 c2.1,0.4,4.1,1,6,1.8c1.8,0.7,3.5,1.7,5.1,2.7c1.6,1.1,2.9,2.2,4.1,3.4l-5,6.7c-0.3,0.4-0.7,0.8-1.1,1.1c-0.4,0.3-1.1,0.5-1.8,0.5 c-0.5,0-1-0.1-1.5-0.4c-0.5-0.2-1-0.5-1.5-0.9c-0.5-0.3-1.1-0.7-1.7-1.1c-0.6-0.4-1.4-0.8-2.2-1.1c-0.9-0.3-1.9-0.6-3-0.9 c-1.2-0.2-2.5-0.4-4.1-0.4c-2.5,0-4.7,0.5-6.8,1.4c-2,0.9-3.8,2.2-5.3,4c-1.5,1.7-2.6,3.9-3.4,6.4c-0.8,2.5-1.2,5.4-1.2,8.7 c0,3.3,0.4,6.2,1.3,8.8c0.9,2.6,2.1,4.7,3.7,6.4s3.3,3.1,5.4,4c2.1,0.9,4.3,1.4,6.6,1.4c1.3,0,2.6-0.1,3.7-0.2 c1.1-0.1,2.2-0.4,3.1-0.7c1-0.3,1.9-0.7,2.7-1.2c0.8-0.5,1.7-1.2,2.6-2c0.4-0.3,0.7-0.5,1.1-0.7S408.9,48.4,409.4,48.4z" class="st5"/><path d="M475.8,0.8V65h-15V37.9h-26V65h-15V0.8h15v26.8h26V0.8H475.8z" class="st5"/><path d="M499.7,12.3v15h20.2v11h-20.2v15.3H526V65h-41.3V0.8H526v11.4H499.7z" class="st5"/><path d="M583.8,65h-13.5c-2.5,0-4.3-0.9-5.4-2.8l-10.6-18.6c-0.5-0.8-1.1-1.4-1.7-1.7c-0.6-0.4-1.5-0.5-2.6-0.5h-3.8 V65h-14.9V0.8h20.9c4.6,0,8.6,0.5,11.9,1.4c3.3,1,5.9,2.3,8,4c2.1,1.7,3.6,3.7,4.5,6s1.4,4.8,1.4,7.6c0,2.1-0.3,4-0.8,5.9 c-0.6,1.8-1.4,3.6-2.5,5.1c-1.1,1.6-2.4,3-4,4.2s-3.4,2.2-5.5,3c1,0.5,1.9,1.1,2.7,1.9s1.6,1.6,2.3,2.7L583.8,65z M552.2,31 c2,0,3.7-0.3,5.2-0.8c1.4-0.5,2.6-1.2,3.5-2.1s1.6-2,2-3.2c0.4-1.2,0.6-2.5,0.6-3.9c0-2.8-0.9-5-2.8-6.6c-1.8-1.6-4.7-2.4-8.5-2.4 h-6v19H552.2z" class="st5"/><path d="M222.6,100.9c-0.4,0.7-0.9,1.2-1.4,1.6s-1.1,0.5-1.9,0.5c-0.7,0-1.4-0.2-2.2-0.6c-0.8-0.4-1.7-0.9-2.6-1.4 s-2.1-1-3.4-1.4c-1.3-0.4-2.7-0.6-4.3-0.6c-2.8,0-4.9,0.6-6.2,1.8c-1.4,1.2-2,2.8-2,4.8c0,1.3,0.4,2.4,1.2,3.2s1.9,1.6,3.2,2.2 c1.3,0.6,2.9,1.2,4.6,1.7c1.7,0.5,3.5,1.1,5.3,1.7c1.8,0.6,3.5,1.4,5.3,2.2s3.2,1.9,4.6,3.3c1.3,1.3,2.4,2.9,3.2,4.8 c0.8,1.9,1.2,4.2,1.2,6.8c0,3-0.5,5.7-1.5,8.3c-1,2.6-2.5,4.8-4.5,6.8c-2,1.9-4.4,3.4-7.2,4.5c-2.9,1.1-6.1,1.7-9.7,1.7 c-2,0-4-0.2-6.1-0.6c-2.1-0.4-4.1-1-6-1.7c-1.9-0.7-3.8-1.6-5.5-2.7c-1.7-1-3.2-2.2-4.4-3.4l4.4-7c0.4-0.5,0.8-0.9,1.4-1.3 c0.6-0.3,1.2-0.5,1.9-0.5c0.9,0,1.8,0.3,2.7,0.8c0.9,0.6,1.9,1.2,3,1.8c1.1,0.7,2.4,1.3,3.9,1.8c1.5,0.6,3.2,0.8,5.2,0.8 c2.7,0,4.8-0.6,6.3-1.8c1.5-1.2,2.2-3.1,2.2-5.7c0-1.5-0.4-2.7-1.2-3.7c-0.8-0.9-1.9-1.7-3.2-2.3s-2.9-1.2-4.6-1.6 c-1.7-0.5-3.4-1-5.2-1.6c-1.8-0.6-3.5-1.3-5.2-2.1c-1.7-0.8-3.2-1.9-4.6-3.3c-1.3-1.4-2.4-3.1-3.2-5.1c-0.8-2-1.2-4.6-1.2-7.5 c0-2.4,0.5-4.8,1.5-7s2.4-4.3,4.3-6.1c1.9-1.8,4.2-3.2,6.9-4.3c2.7-1.1,5.9-1.6,9.4-1.6c2,0,3.9,0.2,5.7,0.5 c1.9,0.3,3.6,0.8,5.3,1.4c1.7,0.6,3.2,1.3,4.7,2.2c1.5,0.8,2.8,1.8,3.9,2.8L222.6,100.9z" class="st6"/><path d="M248.7,99.3v15h20.2v11h-20.2v15.3H275V152h-41.3V87.8H275v11.4H248.7z" class="st6"/><path d="M323.9,135.4c0.4,0,0.7,0.1,1.1,0.2c0.4,0.1,0.7,0.4,1,0.7l5.9,6.2c-2.6,3.4-5.8,5.9-9.7,7.6 s-8.5,2.6-13.8,2.6c-4.9,0-9.2-0.8-13.1-2.5c-3.9-1.7-7.1-3.9-9.8-6.9c-2.7-2.9-4.7-6.4-6.2-10.4s-2.2-8.4-2.2-13 c0-4.8,0.8-9.2,2.3-13.2c1.6-4,3.7-7.5,6.6-10.4c2.8-2.9,6.2-5.2,10.1-6.8c3.9-1.6,8.3-2.4,13-2.4c2.4,0,4.7,0.2,6.8,0.6 c2.1,0.4,4.1,1,6,1.8c1.8,0.7,3.5,1.7,5.1,2.7s2.9,2.2,4.1,3.4l-5,6.7c-0.3,0.4-0.7,0.8-1.1,1.1c-0.4,0.3-1.1,0.5-1.8,0.5 c-0.5,0-1-0.1-1.5-0.4c-0.5-0.2-1-0.5-1.5-0.9c-0.5-0.3-1.1-0.7-1.7-1.1c-0.6-0.4-1.4-0.8-2.2-1.1c-0.9-0.3-1.9-0.6-3-0.9 c-1.2-0.2-2.5-0.4-4.1-0.4c-2.5,0-4.7,0.5-6.8,1.4c-2,0.9-3.8,2.2-5.3,4c-1.5,1.7-2.6,3.9-3.4,6.4s-1.2,5.4-1.2,8.7 c0,3.3,0.4,6.2,1.3,8.8c0.9,2.6,2.1,4.7,3.7,6.4s3.3,3.1,5.4,4c2.1,0.9,4.3,1.4,6.6,1.4c1.3,0,2.6-0.1,3.7-0.2 c1.1-0.1,2.2-0.4,3.1-0.7c1-0.3,1.9-0.7,2.7-1.2c0.9-0.5,1.7-1.2,2.6-2c0.4-0.3,0.7-0.5,1.1-0.7C323,135.5,323.4,135.4,323.9,135.4 z" class="st6"/><path d="M388.6,152h-13.5c-2.5,0-4.3-0.9-5.4-2.8l-10.6-18.6c-0.5-0.8-1.1-1.4-1.7-1.7c-0.6-0.4-1.5-0.5-2.6-0.5H351 V152h-14.9V87.8H357c4.6,0,8.6,0.5,11.9,1.4s5.9,2.3,8,4c2.1,1.7,3.6,3.7,4.5,6s1.4,4.8,1.4,7.6c0,2.1-0.3,4-0.8,5.9 c-0.6,1.8-1.4,3.6-2.5,5.1c-1.1,1.6-2.4,3-4,4.2s-3.4,2.2-5.5,3c1,0.5,1.9,1.1,2.7,1.9s1.6,1.6,2.3,2.7L388.6,152z M357,118 c2,0,3.7-0.3,5.2-0.8c1.4-0.5,2.6-1.2,3.5-2.1c0.9-0.9,1.6-2,2-3.2c0.4-1.2,0.6-2.5,0.6-3.9c0-2.8-0.9-5-2.8-6.6 c-1.8-1.6-4.7-2.4-8.5-2.4h-6v19H357z" class="st6"/><path d="M406.8,99.3v15h20.2v11h-20.2v15.3h26.3V152h-41.3V87.8h41.3v11.4H406.8z" class="st6"/><path d="M486.1,99.6h-18V152h-14.9V99.6h-18V87.8h51V99.6z" class="st6"/><path d="M530.4,87.8c4.4,0,8.2,0.4,11.3,1.2s5.6,2,7.6,3.5c2,1.5,3.4,3.3,4.3,5.5c0.9,2.1,1.3,4.5,1.3,7.2 c0,1.4-0.2,2.8-0.6,4.2c-0.4,1.3-1.1,2.6-1.9,3.7c-0.9,1.2-2,2.2-3.4,3.2c-1.4,1-3,1.8-5,2.5c4.2,1,7.3,2.7,9.4,5 c2,2.3,3,5.3,3,8.9c0,2.7-0.5,5.3-1.6,7.6c-1.1,2.3-2.6,4.4-4.6,6.1c-2,1.7-4.6,3.1-7.5,4.1c-3,1-6.4,1.5-10.3,1.5h-25.6V87.8 H530.4z M521.7,99v15.8h7.7c1.6,0,3.1-0.1,4.4-0.4c1.3-0.2,2.4-0.6,3.4-1.2s1.6-1.4,2.1-2.4c0.5-1,0.7-2.3,0.7-3.9 c0-1.5-0.2-2.8-0.6-3.8c-0.4-1-1-1.8-1.8-2.4s-1.8-1.1-3-1.3c-1.2-0.3-2.7-0.4-4.3-0.4H521.7z M532.2,140.7c2,0,3.6-0.2,4.8-0.7 c1.2-0.5,2.2-1.1,2.9-1.9s1.2-1.7,1.5-2.7s0.4-2,0.4-3c0-1.2-0.2-2.2-0.5-3.2c-0.3-0.9-0.8-1.7-1.6-2.4c-0.7-0.6-1.7-1.1-3-1.5 c-1.2-0.4-2.8-0.5-4.7-0.5h-10.4v16H532.2z" class="st6"/><path d="M616,152h-13.5c-2.5,0-4.3-0.9-5.4-2.8l-10.6-18.6c-0.5-0.8-1.1-1.4-1.7-1.7c-0.6-0.4-1.5-0.5-2.6-0.5h-3.8 V152h-14.9V87.8h20.9c4.6,0,8.6,0.5,11.9,1.4c3.3,1,5.9,2.3,8,4c2.1,1.7,3.6,3.7,4.5,6s1.4,4.8,1.4,7.6c0,2.1-0.3,4-0.8,5.9 c-0.6,1.8-1.4,3.6-2.5,5.1c-1.1,1.6-2.4,3-4,4.2s-3.4,2.2-5.5,3c1,0.5,1.9,1.1,2.7,1.9s1.6,1.6,2.3,2.7L616,152z M584.4,118 c2,0,3.7-0.3,5.2-0.8c1.4-0.5,2.6-1.2,3.5-2.1s1.6-2,2-3.2c0.4-1.2,0.6-2.5,0.6-3.9c0-2.8-0.9-5-2.8-6.6c-1.8-1.6-4.7-2.4-8.5-2.4 h-6v19H584.4z" class="st6"/><path d="M634.2,152h-15V87.8h15V152z" class="st6"/><path d="M702.6,119.9c0,4.6-0.8,8.9-2.4,12.8s-3.8,7.3-6.8,10.2c-2.9,2.9-6.4,5.1-10.5,6.7c-4.1,1.6-8.6,2.4-13.6,2.4 h-24.9V87.8h24.9c5,0,9.5,0.8,13.6,2.4c4.1,1.6,7.6,3.8,10.5,6.7c2.9,2.8,5.2,6.2,6.8,10.1S702.6,115.3,702.6,119.9z M687.3,119.9 c0-3.2-0.4-6-1.2-8.6c-0.8-2.6-2-4.7-3.5-6.5c-1.5-1.8-3.4-3.1-5.7-4.1c-2.2-1-4.8-1.4-7.6-1.4h-9.9v41.2h9.9 c2.8,0,5.4-0.5,7.6-1.4c2.2-1,4.1-2.3,5.7-4.1c1.5-1.8,2.7-3.9,3.5-6.5S687.3,123.1,687.3,119.9z" class="st6"/><path d="M740,118.7h22.8v27.1c-3.3,2.4-6.8,4.2-10.5,5.2s-7.6,1.6-11.6,1.6c-5.3,0-10.1-0.8-14.4-2.5 c-4.3-1.7-8-3.9-11.1-6.9c-3.1-2.9-5.5-6.4-7.1-10.4c-1.7-4-2.5-8.4-2.5-13c0-4.8,0.8-9.2,2.4-13.2s3.9-7.5,6.8-10.4 c2.9-2.9,6.5-5.2,10.7-6.8s8.9-2.4,14-2.4c2.7,0,5.2,0.2,7.5,0.7c2.3,0.4,4.5,1,6.5,1.8c2,0.8,3.8,1.7,5.4,2.7s3.1,2.2,4.4,3.4 l-4.3,6.6c-0.7,1-1.5,1.7-2.6,1.9c-1.1,0.2-2.2,0-3.5-0.8c-1.2-0.7-2.3-1.3-3.3-1.8c-1-0.5-2.1-0.9-3.2-1.3 c-1.1-0.3-2.2-0.6-3.4-0.7c-1.2-0.1-2.6-0.2-4-0.2c-2.8,0-5.3,0.5-7.5,1.5c-2.2,1-4.1,2.4-5.7,4.2c-1.6,1.8-2.8,3.9-3.6,6.4 s-1.3,5.3-1.3,8.4c0,3.4,0.5,6.4,1.4,9.1c0.9,2.6,2.3,4.9,4,6.7c1.7,1.8,3.8,3.2,6.2,4.2c2.4,1,5,1.4,7.9,1.4 c1.8,0,3.4-0.2,4.9-0.5c1.5-0.4,2.9-0.8,4.2-1.4v-9.7H743c-0.9,0-1.7-0.2-2.2-0.7s-0.8-1.1-0.8-1.9V118.7z" class="st6"/><path d="M785.5,99.3v15h20.2v11h-20.2v15.3h26.3V152h-41.3V87.8h41.3v11.4H785.5z" class="st6"/><path d="M891,87.8L865.3,152h-13.5l-25.7-64.1h12c1.3,0,2.3,0.3,3.1,0.9c0.8,0.6,1.4,1.4,1.8,2.3l12.4,34.3 c0.6,1.5,1.2,3.1,1.7,4.9c0.6,1.8,1.1,3.6,1.6,5.6c0.4-1.9,0.9-3.8,1.4-5.6c0.5-1.8,1.1-3.4,1.7-4.9l12.3-34.3 c0.3-0.8,0.9-1.6,1.7-2.2s1.9-1,3.1-1H891z" class="st6"/><path d="M930.6,139.6c1.5,0,2.6,0.4,3.5,1.2c0.9,0.8,1.3,1.9,1.3,3.2v7.9h-45.1v-4.4c0-0.8,0.2-1.8,0.5-2.7 s1-1.8,1.8-2.6l18.5-18.6c1.6-1.6,3-3.1,4.1-4.5c1.2-1.4,2.1-2.9,2.9-4.2c0.8-1.4,1.3-2.8,1.7-4.2c0.4-1.4,0.6-2.9,0.6-4.4 c0-2.6-0.6-4.5-1.8-5.9c-1.2-1.4-3.1-2-5.6-2c-2,0-3.7,0.5-5.1,1.6c-1.4,1.1-2.4,2.4-2.9,4c-0.6,1.6-1.4,2.7-2.4,3.2 s-2.4,0.6-4.3,0.4l-7.2-1.3c0.5-3.2,1.4-6,2.7-8.4s3-4.4,5-5.9c2-1.6,4.2-2.8,6.8-3.5c2.6-0.8,5.3-1.2,8.2-1.2c3.2,0,6,0.5,8.6,1.4 c2.5,0.9,4.7,2.2,6.5,3.8c1.8,1.6,3.2,3.6,4.1,5.9c1,2.3,1.4,4.8,1.4,7.5c0,2.3-0.3,4.5-1,6.5c-0.7,2-1.6,3.9-2.7,5.7 c-1.1,1.8-2.5,3.5-4,5.2c-1.5,1.7-3.1,3.4-4.8,5.1l-12.5,12.8c1.6-0.5,3.2-0.9,4.8-1.1c1.6-0.3,3-0.4,4.4-0.4H930.6z" class="st6"/></g><g><g><path d="M135.6,28.9h-0.4h-3.6h-0.4c0,22.1-18,40.1-40.1,40.1S50.9,51,50.9,28.9h-4C47,51,28.9,69,6.8,69v0.4V73v0.4 H47v10.2h4V73.4h80.5v10.2h4V73.4h40.4V73v-3.6V69C153.6,69,135.6,51,135.6,28.9z M24.2,69.4C34.3,65.1,42.4,57.1,47,47.2v22.3 H24.2z M50.9,47.2c4.5,9.9,12.7,18,22.7,22.3H50.9V47.2z M108.5,69.4c10.3-4.4,18.4-12.6,23-22.7v22.7H108.5z M135.3,69.4V46.7 c4.5,10.2,12.7,18.3,23,22.7H135.3z" class="st2"/></g></g><path d="M172.5,78.4c0,5.7-4.6,10.4-10.4,10.4c-5.7,0-10.4-4.6-10.4-10.4c0,5.7-4.6,10.4-10.4,10.4	c-5.7,0-10.4-4.6-10.4-10.4c0,5.7-4.6,10.4-10.4,10.4s-10.4-4.6-10.4-10.4c0,5.7-4.6,10.4-10.4,10.4s-10.4-4.6-10.4-10.4	c0,5.7-4.6,10.4-10.4,10.4S69,84.1,69,78.4c0,5.7-4.6,10.4-10.4,10.4s-10.4-4.6-10.4-10.4c0,5.7-4.6,10.4-10.4,10.4	s-10.4-4.6-10.4-10.4c0,5.7-4.6,10.4-10.4,10.4S6.8,84.1,6.8,78.4" class="st110"/><path d="M121.5,122.5c-5.7,0-10.4-4.6-10.4-10.4c0,5.7-4.6,10.4-10.4,10.4s-10.4-4.6-10.4-10.4	c0,5.7-4.6,10.4-10.4,10.4" class="st110"/><path d="M105.6,22.5c2,0,4.7,1.7,4.7,3.8c0-2,2.8-3.6,4.8-3.6" class="st111"/><path d="M97.3,26.4c2,0,4.7,1.7,4.7,3.8c0-2,2.8-3.6,4.8-3.6" class="st111"/><path d="M113.9,26.4c2,0,4.7,1.7,4.7,3.8c0-2,2.8-3.6,4.8-3.6" class="st111"/><path d="M48.2,105.6c-5.7,0-10.4-4.6-10.4-10.4c0,5.7-4.6,10.4-10.4,10.4S17.2,101,17.2,95.3	c0,5.7-4.6,10.4-10.4,10.4" class="st110"/></svg>