<svg xmlns="http://www.w3.org/2000/svg" xmlns:xlink="http://www.w3.org/1999/xlink" id="Layer_1" x="0" y="0" version="1.1" viewBox="0 0 620 151.4" xml:space="preserve" style="enable-background:new 0 0 620 151.4"><style type="text/css">.st3{fill:#3d3d3d}.st4{fill:#0075a8}.st8{fill:#f15354}.st30{fill:#bdc3c7}.st47{fill:#fff}</style><g><path d="M81.4,8.5h24.5c11.6,0,19.4,5.6,19.4,16.5c0,8.9-6.1,14.3-12,16.1c1.8,1.5,3.1,3.5,4.1,5.6 c2.5,5,4.1,10.6,9.3,10.6c1.3,0,2.4-0.4,2.4-0.4L128,67.4c0,0-3.2,0.8-5.9,0.8c-7,0-11.1-2.7-15.2-12.1c-1.8-4.2-4.2-11.6-7.5-11.6 h-3.3v23.5H81.4V8.5z M96.1,19.1v14.6h5.3c4.2,0,9.2-1.3,9.2-7.7c0-5.2-3.3-7-7.4-7H96.1z" class="st3"/><path d="M145.5,8.5h14.9l20.1,59.4h-14.9l-3.7-11.3H142l-3.6,11.3h-12.8L145.5,8.5z M145.5,45.7h12.8l-4-12.5 c-1.4-4.2-2-10.2-2-10.2h-0.4c0,0-0.9,6.1-2.2,10.1L145.5,45.7z" class="st3"/><path d="M181.4,8.5h15.8L212.7,38c1.3,2.6,3.1,7,4.5,10.6h0.4c-0.2-3.3-0.6-8.1-0.6-11.5V8.5H229v59.4h-15.4 l-16.2-29.4c-1.5-2.6-3.1-6.5-4.3-9.7h-0.4c0.3,3.3,0.7,7.3,0.7,10.6v28.5h-12.1V8.5z" class="st3"/><path d="M232.6,37.8c0-21.5,10.6-30.4,27.1-30.4c17.3,0,24.3,9.5,22.4,22.4L268.3,31c1.5-9.4-2.2-13.2-8.9-13.2 c-6.4,0-11.6,4.8-11.6,20.1c0,16.2,5.6,20.3,12.1,20.3c6.1,0,11-3.8,9.9-11.5l12.8,1.3c1,12.1-7.7,20.9-23.6,20.9 C242.9,69,232.6,59.5,232.6,37.8z" class="st3"/><path d="M286,8.5h14.7v22.4h18V8.5h14.7v59.4h-14.7V42.7h-18v25.2H286V8.5z" class="st3"/><path d="M339.6,8.5H379v10.9h-24.6v12.8H375v10.9h-20.7V57h25.5v10.9h-40.2V8.5z" class="st3"/><path d="M383,8.5h24.5c11.6,0,19.4,5.6,19.4,16.5c0,8.9-6.1,14.3-12,16.1c1.8,1.5,3.1,3.5,4.1,5.6 c2.5,5,4.1,10.6,9.3,10.6c1.3,0,2.4-0.4,2.4-0.4l-1.1,10.5c0,0-3.2,0.8-5.9,0.8c-7,0-11.1-2.7-15.2-12.1 c-1.8-4.2-4.2-11.6-7.5-11.6h-3.3v23.5H383V8.5z M397.7,19.1v14.6h5.3c4.2,0,9.2-1.3,9.2-7.7c0-5.2-3.3-7-7.4-7H397.7z" class="st3"/><path d="M81.4,83.5h14.7v22.4h18V83.5h14.7v59.4h-14.7v-25.2h-18v25.2H81.4V83.5z" class="st4"/><path d="M135,83.5h39.3v10.9h-24.6v12.8h20.7v10.9h-20.7V132h25.5v10.9H135V83.5z" class="st4"/><path d="M193.1,83.5H208l20.1,59.4h-14.9l-3.7-11.3h-19.9l-3.6,11.3h-12.8L193.1,83.5z M193.1,120.7h12.8l-4-12.5 c-1.4-4.2-2-10.2-2-10.2h-0.4c0,0-0.9,6.1-2.2,10.1L193.1,120.7z" class="st4"/><path d="M229,83.5h14.7V132h24.7v10.9H229V83.5z" class="st4"/><path d="M265.5,83.5H313v10.9h-16.5v48.5h-14.7V94.4h-16.2V83.5z" class="st4"/><path d="M314.7,83.5h14.7v22.4h18V83.5h14.7v59.4h-14.7v-25.2h-18v25.2h-14.7V83.5z" class="st4"/><path d="M365.7,112.8c0-21.5,10.6-30.4,27.1-30.4c17.3,0,24.3,9.5,22.4,22.4l-13.7,1.2c1.5-9.4-2.2-13.2-8.9-13.2 c-6.4,0-11.6,4.8-11.6,20.1c0,16.2,5.6,20.3,12.1,20.3c6.1,0,11-3.8,9.9-11.5l12.8,1.3c1,12.1-7.7,20.9-23.6,20.9 C376.1,144,365.7,134.5,365.7,112.8z" class="st4"/><path d="M419.1,83.5h14.7v22.4h18V83.5h14.7v59.4h-14.7v-25.2h-18v25.2h-14.7V83.5z" class="st4"/><path d="M472.8,83.5h39.3v10.9h-24.6v12.8h20.7v10.9h-20.7V132H513v10.9h-40.2V83.5z" class="st4"/><path d="M513.4,112.8c0-21.5,10.6-30.4,27.1-30.4c17.3,0,24.3,9.5,22.4,22.4l-13.7,1.2c1.5-9.4-2.2-13.2-8.9-13.2 c-6.4,0-11.6,4.8-11.6,20.1c0,16.2,5.6,20.3,12.1,20.3c6.1,0,11-3.8,9.9-11.5l12.8,1.3c1,12.1-7.7,20.9-23.6,20.9 C523.8,144,513.4,134.5,513.4,112.8z" class="st4"/><path d="M566.9,83.5h14.7v16.6c0,1.8-0.3,4.6-0.4,6.6h0.4c1-1.5,2.2-3.8,3.7-5.5l14.5-17.7h15.8l-19.4,23.3l20.4,36.1 h-16.9L586,118l-4.4,5.4v19.5h-14.7V83.5z" class="st4"/></g><g><path d="M27.9,147.1c-11.3,0-20.4-9.2-20.4-20.4c0-6.5,3.1-12.6,8.3-16.4V17.2c0-6.7,5.4-12.1,12.1-12.1 s12.1,5.4,12.1,12.1v93.1c5.2,3.8,8.3,9.9,8.3,16.4C48.4,138,39.2,147.1,27.9,147.1z" class="st47"/><path d="M27.9,8c5.1,0,9.3,4.2,9.3,9.3v94.6c5,3.1,8.3,8.6,8.3,14.9c0,9.7-7.9,17.6-17.6,17.6 c-9.7,0-17.6-7.9-17.6-17.6c0-6.3,3.3-11.8,8.3-14.9V17.2C18.7,12.1,22.8,8,27.9,8 M27.9,2.3c-8.2,0-15,6.7-15,15v91.7 c-5.2,4.4-8.3,10.8-8.3,17.8c0,12.8,10.4,23.2,23.2,23.2s23.2-10.4,23.2-23.2c0-7-3-13.4-8.3-17.8V17.2C42.9,9,36.2,2.3,27.9,2.3 L27.9,2.3z" class="st30"/></g><g><path d="M19.2,135.4c-2.3-2.3-3.6-5.4-3.6-8.7c0-4.3,2.2-8.2,5.8-10.5l2.5-1.5l0-46.1l8.1,0l0,46.1l2.4,1.5 c0.8,0.5,1.6,1.1,2.2,1.8c2.3,2.3,3.6,5.4,3.6,8.7c0,6.8-5.5,12.4-12.4,12.4C24.6,139.1,21.5,137.8,19.2,135.4z" class="st8"/></g></svg>