<svg xmlns="http://www.w3.org/2000/svg" xmlns:xlink="http://www.w3.org/1999/xlink" id="Layer_1" x="0" y="0" version="1.1" viewBox="0 0 849.1 151.4" xml:space="preserve" style="enable-background:new 0 0 849.1 151.4"><style type="text/css">.st2{fill:#99a3a8}.st4{fill:#3d3d3d}.st5{fill:#0075a8}.st77,.st79{fill:none;stroke:#0075a8;stroke-miterlimit:10}.st79{stroke:#99a3a8}.st81{opacity:.7}</style><g><path d="M184.7,8.5h24.5c11.6,0,19.4,5.6,19.4,16.5c0,8.9-6.1,14.3-12,16.1c1.8,1.5,3.1,3.5,4.1,5.6 c2.5,5,4.1,10.6,9.3,10.6c1.3,0,2.4-0.4,2.4-0.4l-1.1,10.5c0,0-3.2,0.8-5.9,0.8c-7,0-11.1-2.7-15.2-12.1 c-1.8-4.2-4.2-11.6-7.5-11.6h-3.3v23.5h-14.7V8.5z M199.4,19.2v14.6h5.3c4.2,0,9.2-1.3,9.2-7.7c0-5.2-3.3-7-7.4-7H199.4z" class="st4"/><path d="M248.9,8.5h14.9l20.1,59.4H269l-3.7-11.3h-19.9l-3.6,11.3H229L248.9,8.5z M248.9,45.7h12.8l-4-12.5 c-1.4-4.2-2-10.2-2-10.2h-0.4c0,0-0.9,6.1-2.2,10.1L248.9,45.7z" class="st4"/><path d="M284.9,8.5h15.8L316.3,38c1.3,2.6,3.1,7,4.5,10.6h0.4c-0.2-3.3-0.6-8.1-0.6-11.5V8.5h12.1v59.4h-15.4 l-16.2-29.4c-1.5-2.6-3.1-6.5-4.3-9.7h-0.4c0.3,3.3,0.7,7.3,0.7,10.6v28.5h-12.1V8.5z" class="st4"/><path d="M336.1,37.8c0-21.5,10.6-30.4,27.1-30.4c17.3,0,24.3,9.5,22.4,22.4L371.9,31c1.5-9.4-2.2-13.2-8.9-13.2 c-6.4,0-11.6,4.8-11.6,20.1c0,16.2,5.6,20.3,12.1,20.3c6.1,0,11-3.8,9.9-11.5l12.8,1.3c1,12.1-7.7,20.9-23.6,20.9 C346.5,69,336.1,59.5,336.1,37.8z" class="st4"/><path d="M389.7,8.5h14.7V31h18V8.5h14.7v59.4h-14.7V42.8h-18v25.2h-14.7V8.5z" class="st4"/><path d="M443.4,8.5h39.3v10.9h-24.6v12.8h20.7v10.9h-20.7V57h25.5v10.9h-40.2V8.5z" class="st4"/><path d="M486.9,8.5h24.5c11.6,0,19.4,5.6,19.4,16.5c0,8.9-6.1,14.3-12,16.1c1.8,1.5,3.1,3.5,4.1,5.6 c2.5,5,4.1,10.6,9.3,10.6c1.3,0,2.4-0.4,2.4-0.4l-1.1,10.5c0,0-3.2,0.8-5.9,0.8c-7,0-11.1-2.7-15.2-12.1 c-1.8-4.2-4.2-11.6-7.5-11.6h-3.3v23.5h-14.7V8.5z M501.6,19.2v14.6h5.3c4.2,0,9.2-1.3,9.2-7.7c0-5.2-3.3-7-7.4-7H501.6z" class="st4"/><path d="M184.7,83.5h24.9c11.7,0,20.2,5.9,20.2,17.8c0,12.9-8.2,20.4-20.2,20.4h-10.2v21.2h-14.7V83.5z M199.4,94.2 v16.9h6.9c4.6,0,8.7-2.5,8.7-8.9c0-6.1-4.1-8-8.7-8H199.4z" class="st5"/><path d="M232,83.5h39.3v10.9h-24.6v12.8h20.7v10.9h-20.7V132h25.5v10.9H232V83.5z" class="st5"/><path d="M275.5,83.5H300c11.6,0,19.4,5.6,19.4,16.5c0,8.9-6.1,14.3-12,16.1c1.8,1.5,3.1,3.5,4.1,5.6 c2.5,5,4.1,10.6,9.3,10.6c1.3,0,2.4-0.4,2.4-0.4l-1.1,10.5c0,0-3.2,0.8-5.9,0.8c-7,0-11.1-2.7-15.2-12.1 c-1.8-4.2-4.2-11.6-7.5-11.6h-3.3v23.5h-14.7V83.5z M290.2,94.2v14.6h5.3c4.2,0,9.2-1.3,9.2-7.7c0-5.2-3.3-7-7.4-7H290.2z" class="st5"/><path d="M342.1,83.5h14.7V106h18V83.5h14.7v59.4h-14.7v-25.2h-18v25.2h-14.7V83.5z" class="st5"/><path d="M393.2,112.4c0-21.4,11.4-29.9,27.3-29.9c15.7,0,27,8.5,27,29.9c0,23.8-11.7,31.6-27,31.6 C404.5,144,393.2,135.4,393.2,112.4z M432.4,112.4c0-14.8-5.8-19.5-12.1-19.5s-12.1,4.8-12.1,19.5c0,16.5,5.7,21.2,12.1,21.2 S432.4,128.8,432.4,112.4z" class="st5"/><path d="M460.9,123.4c-1.1,4.8,0.8,10.2,10.1,10.2c6.2,0,8.3-2.5,8.3-5.7c0-4.9-4.9-6.2-10.7-8.3 c-8.7-3-19.4-7.2-19.4-19.6c0-11.1,8.5-17.9,23.1-17.5C490,82.8,495,93.3,493,102.4l-13.5,1.2c0.9-6.9-1.6-10.7-8.5-10.7 c-4.7,0-7.3,1.8-7.3,5.5c0,4.9,4.8,6.4,10.6,8.4c9,3,19.6,6.6,19.6,18.9c0,10.6-7.9,18.3-23.4,18.3c-14.5,0-24.5-6.7-22.4-19.4 L460.9,123.4z" class="st5"/><path d="M493.1,83.5h47.4v10.9H524v48.5h-14.7V94.4h-16.2V83.5z" class="st5"/><path d="M569.3,123.4c-1.1,4.8,0.8,10.2,10.1,10.2c6.2,0,8.3-2.5,8.3-5.7c0-4.9-4.9-6.2-10.7-8.3 c-8.7-3-19.4-7.2-19.4-19.6c0-11.1,8.5-17.9,23.1-17.5c17.8,0.4,22.8,10.8,20.9,19.9l-13.5,1.2c0.9-6.9-1.6-10.7-8.5-10.7 c-4.7,0-7.3,1.8-7.3,5.5c0,4.9,4.8,6.4,10.6,8.4c9,3,19.6,6.6,19.6,18.9c0,10.6-7.9,18.3-23.4,18.3c-14.5,0-24.5-6.7-22.4-19.4 L569.3,123.4z" class="st5"/><path d="M605.5,83.5h14.7v38.1c0,7.6,3.2,10.7,9.2,10.7c6,0,9.6-3.1,9.6-11V83.5h14.3v37.6c0,13.6-8.9,22.9-24.3,22.9 c-14.4,0-23.5-8.4-23.5-21.6V83.5z" class="st5"/><path d="M659.1,83.5h25.4c10.5,0,18.4,3.5,18.4,14.3c0,8.2-4.5,11.4-12.1,13v0.4c8.7,1.1,14,5.6,14,14.5 c0,11.6-8.4,17.2-19.5,17.2h-26.1V83.5z M680.2,106.3c3.9,0,7.7-1.1,7.7-6.2c0-5.2-3.4-6-6.9-6h-7.4v12.1H680.2z M681.6,132.3 c4.5,0,8.4-2.2,8.4-8.1c0-5.1-3.9-7.2-8.4-7.2h-7.9v15.3H681.6z" class="st5"/><path d="M708.2,83.5h15.8l15.6,29.5c1.3,2.6,3.1,7,4.5,10.6h0.4c-0.2-3.3-0.6-8.1-0.6-11.5V83.5h12.1v59.4h-15.4 l-16.2-29.4c-1.5-2.6-3.1-6.5-4.3-9.7h-0.4c0.3,3.3,0.7,7.3,0.7,10.6v28.5h-12.1V83.5z" class="st5"/><path d="M762.1,83.5h39.3v10.9h-24.6v12.8h20.7v10.9h-20.7V132h25.5v10.9h-40.2V83.5z" class="st5"/><path d="M801.1,83.5h47.4v10.9H832v48.5h-14.7V94.4h-16.2V83.5z" class="st5"/></g><g class="st81"><circle cx="77.4" cy="17.8" r="3.1" class="st2"/><circle cx="77.4" cy="133.9" r="3.1" class="st2"/><circle cx="19.4" cy="76.2" r="3.1" class="st2"/><circle cx="135.5" cy="76.2" r="3.1" class="st2"/><ellipse cx="36.4" cy="34.8" class="st2" rx="3.1" ry="3.1" transform="matrix(0.7071 -0.7071 0.7071 0.7071 -13.9669 35.9128)"/><ellipse cx="118.5" cy="116.9" class="st2" rx="3.1" ry="3.1" transform="matrix(0.7071 -0.7071 0.7071 0.7071 -47.9745 118.0144)"/><ellipse cx="36.6" cy="117.1" class="st2" rx="3.1" ry="3.1" transform="matrix(0.7071 -0.7071 0.7071 0.7071 -72.0833 60.215)"/><ellipse cx="118.7" cy="35" class="st2" rx="3.1" ry="3.1" transform="matrix(0.7071 -0.7071 0.7071 0.7071 10.0183 94.2226)"/><polygon points="38.8 115 77.4 20.8 116.3 114.8 19.4 76.2 116.6 37.2 77.4 130.8 38.5 37 132.5 76.2" class="st79"/></g><g><circle cx="55" cy="146.1" r="5.6" class="st5"/><circle cx="11.3" cy="109.4" r="5.6" class="st5"/><circle cx="104.7" cy="5.6" r="5.6" class="st5"/><ellipse cx="111" cy="142.8" class="st5" rx="5.6" ry="5.6" transform="matrix(0.7048 -0.7094 0.7094 0.7048 -68.4895 120.9228)"/><ellipse cx="148.5" cy="101.6" class="st5" rx="5.6" ry="5.6" transform="matrix(0.7048 -0.7094 0.7094 0.7048 -28.2269 135.3131)"/><ellipse cx="146.9" cy="44.8" class="st5" rx="5.6" ry="5.6" transform="matrix(0.7048 -0.7094 0.7094 0.7048 11.5636 117.4138)"/><ellipse cx="6.4" cy="51.3" class="st5" rx="5.6" ry="5.6" transform="matrix(0.7048 -0.7094 0.7094 0.7048 -34.527 19.7255)"/><ellipse cx="45.6" cy="7.3" class="st5" rx="5.6" ry="5.6" transform="matrix(0.7048 -0.7094 0.7094 0.7048 8.2966 34.5403)"/><polygon points="56.6 140.9 48 12.2 143 99 16.3 107 102.5 9.9 108.3 137.3 11.9 53.2 141.3 46.7" class="st77"/></g></svg>