<svg xmlns="http://www.w3.org/2000/svg" xmlns:xlink="http://www.w3.org/1999/xlink" id="Layer_1" x="0" y="0" version="1.1" viewBox="0 0 922 228" xml:space="preserve" style="enable-background:new 0 0 922 228"><style type="text/css">.st3{fill:#3d3d3d}.st4{fill:#0075a8}.st14{fill:#f1c40f}.st16{fill:#eadf5a}.st84,.st86{fill:none;stroke:#2980b9;stroke-width:4.5153;stroke-miterlimit:10}.st86{stroke:#78c9cf}</style><g><path d="M256.4,8.5h24.5c11.6,0,19.4,5.6,19.4,16.5c0,8.9-6.1,14.3-12,16.1c1.8,1.5,3.1,3.5,4.1,5.6 c2.5,5,4.1,10.6,9.3,10.6c1.3,0,2.4-0.4,2.4-0.4L303,67.4c0,0-3.2,0.8-5.9,0.8c-7,0-11.1-2.7-15.2-12.1c-1.8-4.2-4.2-11.6-7.5-11.6 h-3.3v23.5h-14.7V8.5z M271.1,19.2v14.6h5.3c4.2,0,9.2-1.3,9.2-7.7c0-5.2-3.3-7-7.4-7H271.1z" class="st3"/><path d="M320.6,8.5h14.9l20.1,59.4h-14.9L337,56.7h-19.9l-3.6,11.3h-12.8L320.6,8.5z M320.6,45.7h12.8l-4-12.5 c-1.4-4.2-2-10.2-2-10.2h-0.4c0,0-0.9,6.1-2.2,10.1L320.6,45.7z" class="st3"/><path d="M356.6,8.5h15.8L387.9,38c1.3,2.6,3.1,7,4.5,10.6h0.4c-0.2-3.3-0.6-8.1-0.6-11.5V8.5h12.1v59.4h-15.4 l-16.2-29.4c-1.5-2.6-3.1-6.5-4.3-9.7H368c0.3,3.3,0.7,7.3,0.7,10.6v28.5h-12.1V8.5z" class="st3"/><path d="M407.8,37.8c0-21.5,10.6-30.4,27.1-30.4c17.3,0,24.3,9.5,22.4,22.4L443.5,31c1.5-9.4-2.2-13.2-8.9-13.2 c-6.4,0-11.6,4.8-11.6,20.1c0,16.2,5.6,20.3,12.1,20.3c6.1,0,11-3.8,9.9-11.5l12.8,1.3c1,12.1-7.7,20.9-23.6,20.9 C418.2,69,407.8,59.5,407.8,37.8z" class="st3"/><path d="M461.3,8.5H476V31h18V8.5h14.7v59.4h-14.7V42.8h-18v25.2h-14.7V8.5z" class="st3"/><path d="M515.1,8.5h39.3v10.9h-24.6v12.8h20.7v10.9h-20.7V57h25.5v10.9h-40.2V8.5z" class="st3"/><path d="M558.6,8.5H583c11.6,0,19.4,5.6,19.4,16.5c0,8.9-6.1,14.3-12,16.1c1.8,1.5,3.1,3.5,4.1,5.6 c2.5,5,4.1,10.6,9.3,10.6c1.3,0,2.4-0.4,2.4-0.4l-1.1,10.5c0,0-3.2,0.8-5.9,0.8c-7,0-11.1-2.7-15.2-12.1 c-1.8-4.2-4.2-11.6-7.5-11.6h-3.3v23.5h-14.7V8.5z M573.3,19.2v14.6h5.3c4.2,0,9.2-1.3,9.2-7.7c0-5.2-3.3-7-7.4-7H573.3z" class="st3"/><path d="M256.4,83.5h15.8l15.6,29.5c1.3,2.6,3.1,7,4.5,10.6h0.4c-0.2-3.3-0.6-8.1-0.6-11.5V83.5H304v59.4h-15.4 l-16.2-29.4c-1.5-2.6-3.1-6.5-4.3-9.7h-0.4c0.3,3.3,0.7,7.3,0.7,10.6v28.5h-12.1V83.5z" class="st4"/><path d="M310.3,83.5h39.3v10.9H325v12.8h20.7v10.9H325V132h25.5v10.9h-40.2V83.5z" class="st4"/><path d="M349.3,83.5h47.4v10.9h-16.5v48.5h-14.7V94.4h-16.2V83.5z" class="st4"/><path d="M393.8,83.5h14.4l8.5,33.6c1.1,4.1,1.3,11.3,1.3,11.3h0.4c0,0,0.3-7.3,1.1-11.1l7.6-33.8h13.5l7.7,33.5 c1,4.2,1.3,12.1,1.3,12.1h0.4c0,0,0.4-8.1,1.4-12l8.2-33.7h12.5l-15.5,59.4H441l-6.1-25.5c-1.1-4.7-1.8-12.8-1.8-12.8h-0.4 c0,0-0.5,8.2-1.7,12.8l-6.1,25.5h-15.8L393.8,83.5z" class="st4"/><path d="M470.9,112.4c0-21.4,11.4-29.9,27.3-29.9c15.7,0,27,8.5,27,29.9c0,23.8-11.7,31.6-27,31.6 C482.3,144,470.9,135.4,470.9,112.4z M510.2,112.4c0-14.8-5.8-19.5-12.1-19.5S486,97.6,486,112.4c0,16.5,5.7,21.2,12.1,21.2 S510.2,128.8,510.2,112.4z" class="st4"/><path d="M528.8,83.5h24.5c11.6,0,19.4,5.6,19.4,16.5c0,8.9-6.1,14.3-12,16.1c1.8,1.5,3.1,3.5,4.1,5.6 c2.5,5,4.1,10.6,9.3,10.6c1.3,0,2.4-0.4,2.4-0.4l-1.1,10.5c0,0-3.2,0.8-5.9,0.8c-7,0-11.1-2.7-15.2-12.1 c-1.8-4.2-4.2-11.6-7.5-11.6h-3.3v23.5h-14.7V83.5z M543.5,94.2v14.6h5.3c4.2,0,9.2-1.3,9.2-7.7c0-5.2-3.3-7-7.4-7H543.5z" class="st4"/><path d="M578.4,83.5h14.7v16.6c0,1.8-0.3,4.6-0.4,6.6h0.4c1-1.5,2.2-3.8,3.7-5.5l14.5-17.7H627l-19.4,23.3l20.4,36.1 h-16.9L597.5,118l-4.4,5.4v19.5h-14.7V83.5z" class="st4"/><path d="M640.4,83.5h24.9c11.7,0,20.2,5.9,20.2,17.8c0,12.9-8.2,20.4-20.2,20.4h-10.2v21.2h-14.7V83.5z M655.1,94.2 v16.9h6.9c4.6,0,8.7-2.5,8.7-8.9c0-6.1-4.1-8-8.7-8H655.1z" class="st4"/><path d="M685,112.4c0-21.4,11.4-29.9,27.3-29.9c15.7,0,27,8.5,27,29.9c0,23.8-11.7,31.6-27,31.6 C696.4,144,685,135.4,685,112.4z M724.3,112.4c0-14.8-5.8-19.5-12.1-19.5s-12.1,4.8-12.1,19.5c0,16.5,5.7,21.2,12.1,21.2 S724.3,128.8,724.3,112.4z" class="st4"/><path d="M742.9,83.5h14.7V132h24.7v10.9h-39.4V83.5z" class="st4"/><path d="M781.4,83.5H812v10.4h-8v38.6h8v10.4h-30.6v-10.4h7.9V93.9h-7.9V83.5z" class="st4"/><path d="M812.9,112.8c0-21.5,10.6-30.4,27.1-30.4c17.3,0,24.3,9.5,22.4,22.4l-13.7,1.2c1.5-9.4-2.2-13.2-8.9-13.2 c-6.4,0-11.6,4.8-11.6,20.1c0,16.2,5.6,20.3,12.1,20.3c6.1,0,11-3.8,9.9-11.5l12.8,1.3c1,12.1-7.7,20.9-23.6,20.9 C823.3,144,812.9,134.5,812.9,112.8z" class="st4"/><path d="M879.4,117.8l-19.1-34.3h16.6l7.8,14.5c1.5,2.8,3.2,6.6,3.2,6.6h0.4c0,0,1.5-3.7,3.1-6.8l7.5-14.3h13.6 l-18.3,34.3v25.1h-14.7V117.8z" class="st4"/><path d="M256.4,158.5h18.2l9.7,26.5c1.5,4.2,2.6,8.5,2.6,8.5h0.4c0,0,1.1-4.5,2.6-8.5l9.4-26.5h17.3v59.4h-13.7v-30 c0-3.5,1-11.8,1-11.8h-0.4c0,0-1.8,8.4-2.9,11.4L289,217.9h-6.6l-11.5-30.4c-1.2-3.2-2.7-10.8-2.7-10.8h-0.4c0,0,0.6,7.7,0.6,11.3 v30h-12.1V158.5z" class="st4"/><path d="M337.5,158.5h14.9l20.1,59.4h-14.9l-3.7-11.3H334l-3.6,11.3h-12.8L337.5,158.5z M337.5,195.7h12.8l-4-12.5 c-1.4-4.2-2-10.2-2-10.2h-0.4c0,0-0.9,6.1-2.2,10.1L337.5,195.7z" class="st4"/><path d="M373.5,158.5h15.8l15.6,29.5c1.3,2.6,3.1,7,4.5,10.6h0.4c-0.2-3.3-0.6-8.1-0.6-11.5v-28.5h12.1v59.4h-15.4 l-16.2-29.4c-1.5-2.6-3.1-6.5-4.3-9.7h-0.4c0.3,3.3,0.7,7.3,0.7,10.6v28.5h-12.1V158.5z" class="st4"/><path d="M442.1,158.5H457l20.1,59.4h-14.9l-3.7-11.3h-19.9l-3.6,11.3h-12.8L442.1,158.5z M442.1,195.7h12.8l-4-12.5 c-1.4-4.2-2-10.2-2-10.2h-0.4c0,0-0.9,6.1-2.2,10.1L442.1,195.7z" class="st4"/><path d="M502.1,187.9h24.5v30h-9.9v-10c-2.1,6.6-6.9,11.1-17.1,11.1c-13.7,0-24-9.5-24-31.1s10.4-30.4,26.6-30.4 c18.2,0,25.3,10.3,23.3,20.8l-13.8,1.5c1.1-8.2-3-11.9-8.8-11.9c-6.4,0-12.1,4.7-12.1,20.3s4.8,20.1,12,20.1c6.6,0,10.3-4,10.5-8.1 v-1.7h-11.1V187.9z" class="st4"/><path d="M530.9,158.5h39.3v10.9h-24.6v12.8h20.7v10.9h-20.7V207h25.5v10.9h-40.2V158.5z" class="st4"/><path d="M574.4,158.5h24.5c11.6,0,19.4,5.6,19.4,16.5c0,8.9-6.1,14.3-12,16.1c1.8,1.5,3.1,3.5,4.1,5.6 c2.5,5,4.1,10.6,9.3,10.6c1.3,0,2.4-0.4,2.4-0.4l-1.1,10.5c0,0-3.2,0.8-5.9,0.8c-7,0-11.1-2.7-15.2-12.1 c-1.8-4.2-4.2-11.6-7.5-11.6h-3.3v23.5h-14.7V158.5z M589.1,169.2v14.6h5.3c4.2,0,9.2-1.3,9.2-7.7c0-5.2-3.3-7-7.4-7H589.1z" class="st4"/></g><g><line x1="22.8" x2="126.3" y1="117.3" y2="117.3" class="st84"/><g><polyline points="126.3 208.3 73.3 208.3 20.4 116.7 73.3 24.9 126.3 24.9" class="st84"/><line x1="125" x2="20.4" y1="180.4" y2="116.7" class="st84"/><line x1="20.4" x2="125" y1="116.7" y2="53.9" class="st84"/><polyline points="102.6 208.3 61.4 116.7 102.6 24.9" class="st84"/></g><circle cx="74.9" cy="25.7" r="10.2" class="st14"/><circle cx="65" cy="116.8" r="10.2" class="st14"/><circle cx="24.2" cy="116.8" r="10.2" class="st14"/><circle cx="74.9" cy="207.9" r="10.2" class="st14"/><path d="M126.3,65c-5.6,0-10.2-4.6-10.2-10.2s4.6-10.2,10.2-10.2" class="st14"/><path d="M126.3,127c-5.6,0-10.2-4.6-10.2-10.2c0-5.6,4.6-10.2,10.2-10.2" class="st14"/><path d="M126.3,189c-5.6,0-10.2-4.6-10.2-10.2s4.6-10.2,10.2-10.2" class="st14"/></g><g><g><polyline points="126.5 25.3 179.5 25.3 232.4 116.8 179.5 208.6 126.5 208.6" class="st86"/><line x1="127.7" x2="232.4" y1="53.1" y2="116.8" class="st86"/><line x1="232.4" x2="127.7" y1="116.8" y2="179.6" class="st86"/><polyline points="150.2 25.3 191.3 116.8 150.2 208.6" class="st86"/></g><line x1="229.9" x2="126.5" y1="116.2" y2="116.2" class="st86"/><circle cx="177.9" cy="207.9" r="10.2" class="st16"/><circle cx="187.7" cy="116.8" r="10.2" class="st16"/><circle cx="228.6" cy="116.8" r="10.2" class="st16"/><circle cx="177.9" cy="25.7" r="10.2" class="st16"/><path d="M126.5,168.6c5.6,0,10.2,4.6,10.2,10.2s-4.6,10.2-10.2,10.2" class="st16"/><path d="M126.5,106.6c5.6,0,10.2,4.6,10.2,10.2c0,5.6-4.6,10.2-10.2,10.2" class="st16"/><path d="M126.5,44.6c5.6,0,10.2,4.6,10.2,10.2S132.2,65,126.5,65" class="st16"/></g></svg>