<svg xmlns="http://www.w3.org/2000/svg" xmlns:xlink="http://www.w3.org/1999/xlink" id="Layer_1" x="0" y="0" version="1.1" viewBox="0 0 543 151.4" xml:space="preserve" style="enable-background:new 0 0 543 151.4"><style type="text/css">.st3{fill:#3d3d3d}.st4{fill:#0075a8}.st10{fill:#3498db}.st14{fill:#f1c40f}.st16{fill:#eadf5a}.st68{fill:#58d68d}.st69{fill:#2ecc71}.st70{stroke:#2ecc71}.st70,.st71,.st72{fill:none;stroke-width:1.1621;stroke-miterlimit:10}.st71{stroke:#f1c40f}.st72{stroke:#0075a8}</style><g><g><path d="M186.4,2.5h24.5c11.6,0,19.4,5.6,19.4,16.5c0,8.9-6.1,14.3-12,16.1c1.8,1.5,3.1,3.5,4.1,5.6 c2.5,5,4.1,10.6,9.3,10.6c1.3,0,2.4-0.4,2.4-0.4L233,61.4c0,0-3.2,0.8-5.9,0.8c-7,0-11.1-2.7-15.2-12.1 c-1.8-4.2-4.2-11.6-7.5-11.6h-3.3v23.5h-14.7V2.5z M201.1,13.2v14.6h5.3c4.2,0,9.2-1.3,9.2-7.7c0-5.2-3.3-7-7.4-7H201.1z" class="st3"/><path d="M250.5,2.5h14.9l20.1,59.4h-14.9l-3.7-11.3H247l-3.6,11.3h-12.8L250.5,2.5z M250.5,39.7h12.8l-4-12.5 c-1.4-4.2-2-10.2-2-10.2h-0.4c0,0-0.9,6.1-2.2,10.1L250.5,39.7z" class="st3"/><path d="M289.1,2.5h15.8L320.4,32c1.3,2.6,3.1,7,4.5,10.6h0.4c-0.2-3.3-0.6-8.1-0.6-11.5V2.5h12.1v59.4h-15.4 l-16.2-29.4c-1.5-2.6-3.1-6.5-4.3-9.7h-0.4c0.3,3.3,0.7,7.3,0.7,10.6v28.5h-12.1V2.5z" class="st3"/><path d="M340.9,31.8c0-21.5,10.6-30.4,27.1-30.4c17.3,0,24.3,9.5,22.4,22.4L376.6,25c1.5-9.4-2.2-13.2-8.9-13.2 c-6.4,0-11.6,4.8-11.6,20.1c0,16.2,5.6,20.3,12.1,20.3c6.1,0,11-3.8,9.9-11.5L391,42c1,12.1-7.7,20.9-23.6,20.9 C351.3,63,340.9,53.5,340.9,31.8z" class="st3"/><path d="M394.8,2.5h14.7V25h18V2.5h14.7v59.4h-14.7V36.8h-18v25.2h-14.7V2.5z" class="st3"/><path d="M449.3,2.5h39.3v10.9H464v12.8h20.7v10.9H464V51h25.5v10.9h-40.2V2.5z" class="st3"/><path d="M493.3,2.5h24.5c11.6,0,19.4,5.6,19.4,16.5c0,8.9-6.1,14.3-12,16.1c1.8,1.5,3.1,3.5,4.1,5.6 c2.5,5,4.1,10.6,9.3,10.6c1.3,0,2.4-0.4,2.4-0.4l-1.1,10.5c0,0-3.2,0.8-5.9,0.8c-7,0-11.1-2.7-15.2-12.1 c-1.8-4.2-4.2-11.6-7.5-11.6H508v23.5h-14.7V2.5z M508,13.2v14.6h5.3c4.2,0,9.2-1.3,9.2-7.7c0-5.2-3.3-7-7.4-7H508z" class="st3"/><path d="M186.4,77.5h39.3v10.9h-24.6v12.8h20.7v10.9h-20.7V126h25.5v10.9h-40.2V77.5z" class="st4"/><path d="M229.8,77.5h38.5v10.9h-23.8v15.4h19.4v10.9h-19.4v22.2h-14.7V77.5z" class="st4"/><path d="M280.6,117.4c-1.1,4.8,0.8,10.2,10.1,10.2c6.2,0,8.3-2.5,8.3-5.7c0-4.9-4.9-6.2-10.7-8.3 c-8.7-3-19.4-7.2-19.4-19.6c0-11.1,8.5-17.9,23.1-17.5c17.8,0.4,22.8,10.8,20.9,19.9l-13.5,1.2c0.9-6.9-1.6-10.7-8.5-10.7 c-4.7,0-7.3,1.8-7.3,5.5c0,4.9,4.8,6.4,10.6,8.4c9,3,19.6,6.6,19.6,18.9c0,10.6-7.9,18.3-23.4,18.3c-14.5,0-24.5-6.7-22.4-19.4 L280.6,117.4z" class="st4"/></g></g><path d="M128.5,12.1l-48.9-8c-1.3-0.2-3.2,0.2-4.3,0.8L26.9,34.5C25.8,35.2,25,36.7,25,38v36l23.2-5.3	c1.3-0.3,3.3-0.5,4.6-0.4l75.7,3.9c1.3,0.1,2.5-0.9,2.5-2.2V14.8C131,13.5,129.8,12.3,128.5,12.1z" class="st68"/><path d="M53.8,68.3c-2.4,0-4.3-0.1-5.6,0.2L25,73.9V38c0-1.3,0.8-2.9,1.9-3.5L75.5,5C76.1,4.6,76,4.3,78,4.2v65.3" class="st69"/><g><path d="M84,12l39,6.4V65l-39-2V12.4 M83,10.7v53.5l41,2.1V17.4L83,10.7L83,10.7z" class="st69"/></g><path d="M109.1,71.3l43.6,1.9c1.3,0.1,2.3,1.2,2.3,2.4v59.8c0,1.3-1,2.4-2.3,2.5l-43.6,3.2c-1.3,0.1-2.3-0.9-2.3-2.2	V73.5C106.8,72.2,107.8,71.2,109.1,71.3z" class="st10"/><g><path d="M113,78.5l35,1.5v51.3l-35,2.5V78.5 M112,77.3v57.8l37-2.6V78.9L112,77.3L112,77.3z" class="st4"/></g><path d="M4,81v47.4c0,1.3,1.2,2.7,2.5,3.1l40.9,13.4c0.9,0.3,1.6,0.5,3.6,0.6v0.1l0.4-0.1c0.2,0,0.3,0,0.3,0	c0,0,52.3-3.8,52.3-3.8c1.3-0.1,1.9-1.2,1.9-2.5V73.3c0-1.3-0.7-2.4-1.9-2.4l-51.5-2.5c-1.3-0.1-3.2,0.1-4.5,0.4L6.5,78.2	C5.2,78.5,4,79.7,4,81z" class="st16"/><path d="M50.6,68.4c-1.3-0.1-2.2,0.1-3.5,0.3L6.6,78.2C5.3,78.5,4,79.7,4,81v47.4c0,1.3,1.2,2.7,2.5,3.1l40.9,13.4	c0.9,0.3,1.6,0.5,3.6,0.6v0" class="st14"/><g><path d="M56.8,75.6L99,77.6V135l-21.9,1.6c-5.4,0.4-16.4,1.2-20.1,1.5L56.8,75.6 M55.6,74.3l0.2,64.9 c0,0,14.7-1.1,21.3-1.5L100,136V76.5L55.6,74.3L55.6,74.3z" class="st14"/></g><line x1="105.8" x2="105.8" y1="71.5" y2="9" class="st70"/><line x1="80" x2="80" y1="143.4" y2="69.8" class="st71"/><line x1="131.6" x2="131.6" y1="139.3" y2="72.7" class="st72"/></svg>